<svg xmlns="http://www.w3.org/2000/svg" enable-background="new 0 0 75 75" viewBox="0 0 75 75" id="BounceCastle"><g fill="#000000" class="color000000 svgShape"><path fill="#2dc0f1" d="M45.0438309,51.3469543c-0.030201,0.6100006-1.0499992,0.2301025-1.2602005-0.0298996
					c-1.0879097-1.361248,0.5719261-7.7653923-3.419899-10.030098c-0.9700012-0.5499001-2.1198997-0.6800003-3.2299995-0.6200027
					c-7.8212967,0.3609581-6.110693,9.4043503-6.5401001,10.4400024c-0.3727531,0.9334373-1.4229965,0.5929985-1.4899006-0.4099007
					c-0.0512066-0.1014023-0.2584972-2.6143951,0.1501007-4.7801018c0.6387844-3.3506165,2.4092541-5.7355919,5.6798992-6.75
					c3.415554-1.0329895,6.55373,0.0659409,8.4099007,2.7400017c1.3101006,1.8900986,1.4899979,4.2000008,1.6501999,6.4201012
					C45.0523872,49.1858559,45.0928078,50.4101639,45.0438309,51.3469543z" class="color6f6ecf svgShape"></path><path fill="#3e778a" d="M45.0536308 49.6469574c.0200005.5599976.0200005 1.1299973-.0098 1.6999969-.030201.6100006-1.0499992.2301025-1.2602005-.0298996-.3483734-.4359016-.3815842-1.1220818-.419899-1.8500977C43.9356651 49.2761841 44.5085831 49.3887062 45.0536308 49.6469574zM30.5936317 51.1069565c-.3727531.9334373-1.4229965.5929985-1.4899006-.4099007.4099007-.5699997.9699001-1.0301018 1.6000996-1.3400993C30.7038307 50.139267 30.7650585 50.6935081 30.5936317 51.1069565z" class="color3f3e8a svgShape"></path><path fill="#c4e480" d="M55.6437302,36.206955c-0.0987129,0.5929718-0.3637047,1.4738922-0.9500008,1.6201019
					c-0.385685,0.1918793-1.0004501-0.1778374-1.3400002-0.3900032c-9.5996857-6.2420597-21.8904362-6.3137589-31.5200977-0.2900963
					c-0.4598999,0.2900963-0.9699001,0.6000977-1.5100002,0.530098c-0.3402977-0.0859261-0.6105595-0.1513252-0.9498997-0.6199989
					c-0.9258995-1.3288689-0.8481312-4.036911-0.2299995-5.7701015c0.5200005-1.4699001,1.539999-2.3299999,2.7700005-3.2600002
					c7.8291359-5.9127045,19.9562817-5.3147469,29.0500965-1.7098999
					C56.6053276,28.4980583,56.5459518,30.8626232,55.6437302,36.206955z" class="color92e480 svgShape"></path><path fill="#81bd01" d="M54.1337318,37.8270569c-1.0842743-0.3097916-6.7973137-5.0524979-16.5100021-5.1400032
					c-5.5401001-0.0499992-11.0900974,1.5199013-15.7900982,4.4599037c-0.4598999,0.2900963-0.9699001,0.6000977-1.5100002,0.530098
					c-0.039999-0.0101013-0.0897999-0.0101013-0.1299-0.030098c0.1000061-0.0830536,2.2364159-3.0025749,7.3698997-4.839901
					c4.872015-1.7504978,12.701746-2.3905602,18.1201-0.8501015C49.7635536,33.1301041,52.6850433,35.4850693,54.1337318,37.8270569
					z" class="color4f9f5a svgShape"></path><path fill="#ffffff" d="M29.6000481 26.2440548c2.2656803.0431004 1.1615353 2.8128929-.8744164 2.8074017-.4503994-.0012016-.9237995-.1608009-1.1951008-.520401C26.6192322 27.3232555 28.6386318 26.2257557 29.6000481 26.2440548zM33.9538307 26.2439556c1.3454933.02561.7144051 1.6922779-.526001 1.6891003-.2709999-.0008011-.5557823-.0967999-.718998-.3131008C32.1605301 26.8932552 33.3755302 26.2329559 33.9538307 26.2439556z" opacity=".78" class="colorffffff svgShape"></path><rect width="11.66" height="32.68" x="9.924" y="24.737" fill="#f8d53b" class="colorf8c73b svgShape"></rect><path fill="#f5c904" d="M21.5836315,51.5140572v5.0398979c-0.2098999,0.1100998-0.419899,0.2201004-0.6298008,0.3199997
					c-3.4387417,1.5791588-7.4888821,1.5274239-11.0300989,0.4201012v-6.5401001
					c3.5801001,0.6199989,7.2200003,0.8800011,10.8501005,0.7601013
					C21.0438309,51.5140572,21.3136311,51.5039558,21.5836315,51.5140572z" class="coloref9f27 svgShape"></path><rect width="11.66" height="32.68" x="52.504" y="24.737" fill="#f8d53b" class="colorf8c73b svgShape"></rect><path fill="#f5c904" d="M64.1637268,51.2215538v5.0600014c-0.0299988,0.0200005-0.0499954,0.0299988-0.0800934,0.0400009
					c-4.0443039,1.8279305-8.1857491,1.5677605-11.2600021-0.1500015c-0.1098022-0.0599976-0.2098999-0.1199989-0.3198013-0.1899986
					v-5.5100021C56.4628258,51.6571121,60.2538185,51.8226166,64.1637268,51.2215538z" class="coloref9f27 svgShape"></path><path fill="#2dc0f1" d="M68.8637314,56.7570572v6.9799995c0,2.5600014-2.0601044,4.6198997-4.6199036,4.6198997H10.9137316
					c-2.577261,0-4.6300998-2.092392-4.6300998-4.6198997v-6.9799995c0-2.5083923,2.0328612-4.6300011,4.6300998-4.6300011
					h53.3300972C66.803627,52.1270561,68.8637314,54.1970558,68.8637314,56.7570572z" class="color6f6ecf svgShape"></path><path fill="#3e778a" d="M68.3413467,61.8499107H6.6362696c-0.2763672,0-0.5-0.2236328-0.5-0.5s0.2236328-0.5,0.5-0.5h61.7050781
					c0.2763672,0,0.5,0.2236328,0.5,0.5S68.6177139,61.8499107,68.3413467,61.8499107z" class="color3f3e8a svgShape"></path><path fill="#3e778a" d="M48.6757317,66.4289551c-0.1934013,0.4238968-0.4080009,0.8424988-0.7126007,1.1987
					c-0.9583015,1.1205978-2.7803993,0.7293015-4.1270828,0.7293015c-1.8906898,0-15.2114925,0-18.0024166,0
					c-0.6499004-0.9898987-0.6898994-2.3300018-0.5998001-3.5499039c0.2900009-4.4100952,1.4699993-8.7499962,3.4799995-12.6799965
					h17.3798008c0.2700996,0.7898979,0.4501991,1.6300011,0.6202011,2.4500008
					c1.8106041,8.7177353,1.9792023,9.3372383,2.0840988,10.6093979
					C48.8361092,65.6489487,48.8691025,66.0059662,48.6757317,66.4289551z" class="color3f3e8a svgShape"></path><path fill="#f82878" d="M47.3937302,67.4069519c-0.9435997,1.3421097-2.7151222,1.4595871-3.6301003,0.6300049
					c-0.0298004-0.0298996-0.0597992-0.0599976-0.0798988-0.0899048c-1.7336121,1.5365677-4.627636,1.8740234-6.7299004,0.5500031
					c-1.5401001,1.0800018-3.6401978,1.2798996-5.4001999,0.6499023c-1.2638206-0.4450073-1.9289551-1.1768951-2.039999-1.259903
					c-0.850729,1.1637115-3.3136635,0.864624-3.7998009-1.75c-0.5208263-2.9477692,2.8801594-14.1194534,3.4498997-14.8999977
					c0.2400017-0.330101,0.5300007-0.6000023,0.8699017-0.7900009c0.4723701-0.2361221,1.2000942-0.0797691,1.6000996,0.5600014
					c0.039999,0.0898972,0.2399998,0.4799995,0.1401005,0.5699997c0,0,0.0098-0.0100021,0.0199986-0.0100021
					c0-0.0099983,0.0098-0.0099983,0.0098-0.0200005c1.6967316-1.2725449,3.9599724-1.1807671,5.4402008-0.1400986
					c1.3702469-1.326973,3.8314438-1.3037415,5.169899-0.0600014c0.1235199-0.8873291,1.2465935-1.481041,2.0900993-1.1098976
					c0.8398018,0.3698997,1.1198997,1.3899994,1.3097992,2.2799988c0.660202,3.1999016,1.3201027,6.3998985,1.9900017,9.6100006
					C48.1852722,63.9641991,48.5199509,65.8967056,47.3937302,67.4069519z" class="colorf56357 svgShape"></path><path fill="#f5c904" d="M9.7832422 43.869442c-.2348633-.1455078-.3071289-.453125-.1616211-.6884766.1450195-.2333984.4521484-.3066406.6879883-.1611328 3.2729492 2.0283203 7.6464834 1.9921875 10.8857412-.0878906.2314453-.1503906.5410156-.0820313.690918.1503906.1489258.2324219.081543.5419922-.1508789.6914063C18.2104473 46.0378647 13.4092007 46.1166534 9.7832422 43.869442zM9.7832422 37.6653404c-.2348633-.1455078-.3071289-.453125-.1616211-.6884766.1450195-.234375.4521484-.3066406.6879883-.1611328 3.2719727 2.0283203 7.6455069 1.9931641 10.8857412-.0869141.2314453-.1503906.5410156-.0810547.690918.1503906.1489258.2324219.081543.5419922-.1508789.6914063C18.180727 39.8519058 13.380352 39.8946724 9.7832422 37.6653404zM52.4228897 43.869442c-.2348633-.1455078-.3071289-.453125-.1616211-.6884766.1450195-.2333984.453125-.3066406.6879883-.1611328 3.2719727 2.0253906 7.6455078 1.9921875 10.8857422-.0878906.2324219-.1503906.5410156-.0820313.690918.1503906.1489258.2324219.081543.5419922-.1508789.6914063C60.8576355 46.0336342 56.055481 46.1207657 52.4228897 43.869442zM52.4228897 37.6653404c-.2348633-.1455078-.3071289-.453125-.1616211-.6884766.1450195-.234375.453125-.3066406.6879883-.1611328 3.2719727 2.0273438 7.6474609 1.9931641 10.8857422-.0869141.2324219-.1503906.5410156-.0810547.690918.1503906.1489258.2324219.081543.5419922-.1508789.6914063C60.8203773 39.8519058 56.0200005 39.8946724 52.4228897 37.6653404z" class="coloref9f27 svgShape"></path><path fill="#f3367f" d="M31.1427307,50.8880539c-0.0101986,0.0102005-0.0205002,0.0205002-0.0306835,0.0205002
					c-0.0613155-0.1329994-0.1125164-0.2762985-0.1636162-0.4092979
					C31.0199318,50.6322556,31.0813313,50.765255,31.1427307,50.8880539z" class="colorf34036 svgShape"></path><path fill="#f5c904" d="M64.1637268,24.7370548v2.3699017c-0.1698952,0.0900993-0.3400955,0.1699982-0.5099945,0.2399998
					c-3.5587273,1.5226383-7.6284866,1.9471874-11.1499023,0.3400993v-2.9500008H64.1637268z" class="coloref9f27 svgShape"></path><path fill="#2dc0f1" d="M67.2790451,10.4439554c-0.0606155,0.1733999-0.2129974,0.2975998-0.3691177,0.3944998
					c-0.8015976,0.4975004-1.8563004,0.4119005-2.7636948,0.4647999c-1.9550781,0.1141062-0.8134422,0.0476198-5.0379028,0.2941008
					c-0.8431511,0.0492716-1.22855-0.1465731-1.3055992-1.1950998c-0.0741997-1.0123005-0.0483017-2.0320005,0.0773163-3.0393004
					c0.0680847-0.5462999,0.3557854-1.4443002,1.1000023-1.1912003c0.5240097,0.1781893,2.7374496,2.6078382,7.1241837,3.2855
					c0.2908173,0.0448999,0.5932007,0.0840006,0.8426971,0.2402C67.1957626,9.8532305,67.3761978,10.1655626,67.2790451,10.4439554z
					" class="color6f6ecf svgShape"></path><path fill="#d9e6ea" d="M59.1537323,6.0170555v10.6700001c0,0.2798996-0.2300034,0.5100002-0.5100021,0.5100002h-0.6100998
					c-0.2397995,0-0.4399986-0.1701012-0.5-0.3899994c0-0.140913-0.0096703-10.6491699-0.0098-10.7900009
					c0-0.2901001,0.2299995-0.52,0.5098-0.52h0.6100998C58.9237289,5.4970555,59.1537323,5.7269554,59.1537323,6.0170555z" class="colordcd9ea svgShape"></path><path fill="#bfd8e0" d="M59.1537323,13.1069555v3.5700998c-0.4199028,0.1699009-0.8799019,0.2399006-1.3201027,0.1900005
					c-0.0998001-0.0100994-0.1998978-0.0400009-0.2999992-0.0599995c0-0.1451015-0.0093994-3.5033092-0.0098-3.6501007
					C58.0333443,12.5168638,58.3979034,12.4794054,59.1537323,13.1069555z" class="colorc6bfe0 svgShape"></path><path fill="#f5c904" d="M21.5836315,24.7370548v2.2700005c-0.1177349,0.0338612-5.7212343,3.280817-11.6598997,0.8000011
					v-3.0700016H21.5836315z" class="coloref9f27 svgShape"></path><path fill="#2dc0f1" d="M24.7045307,10.3781557c-0.0605984,0.1733999-0.2130985,0.2975998-0.3690987,0.3943996
					c-0.7611332,0.4723845-0.9148006,0.3571663-7.8017006,0.7589998c-0.3045998,0.0178003-0.6350994,0.0287008-0.8856001-0.1455994
					c-0.3202991-0.2229004-0.3913994-0.6603003-0.4198999-1.0495005c-0.0741844-1.0123997-0.0482998-2.0320997,0.0771999-3.0393996
					c0.0681-0.5462003,0.3559008-1.4443002,1.1000996-1.1912003c0.204401,0.0696001,0.3735161,0.2132001,0.5406017,0.3499002
					c3.5357018,2.8920627,6.8046322,2.7865109,7.426199,3.1757998
					C24.6217613,9.7877254,24.8015137,10.1003695,24.7045307,10.3781557z" class="color6f6ecf svgShape"></path><path fill="#d9e6ea" d="M16.5736313,6.0170555v10.6700001c0,0.2098999-0.1197987,0.3899994-0.299799,0.4598999
					l-0.0102005,0.0100002c-0.0597992,0.0200996-0.1198997,0.0300999-0.1800003,0.0401001c-0.1006937,0-0.7204933,0-0.6197996,0
					c-0.0601006,0-0.1202002-0.0100002-0.1700001-0.0300999c-0.0101995,0-0.0200005,0-0.0302-0.0100002
					c-0.1800003-0.0799007-0.3098001-0.2600002-0.3098001-0.4699001V6.0170555c0-0.2901001,0.2299004-0.52,0.5100002-0.52h0.5997992
					C16.3537312,5.4970555,16.5736313,5.7269554,16.5736313,6.0170555z" class="colordcd9ea svgShape"></path><path fill="#bfd8e0" d="M16.5736313,13.0969553v3.5901003c0,0.2098999-0.1197987,0.3899994-0.299799,0.4598999
					l-0.0102005,0.0100002c-0.0597992,0.0200996-0.1198997,0.0300999-0.1800003,0.0401001
					c-0.3608837,0.0514069-0.3490753,0.0265388-0.5897999,0h-0.0299997c-0.0100002,0-0.0200996-0.0100002-0.0300999-0.0100002
					c-0.0682287-0.0136452-0.1532125-0.0135441-0.1701002-0.0300999c-0.1800003-0.0799007-0.3098001-0.2600002-0.3098001-0.4699001
					v-3.6099997c0.2299004-0.1801004,0.5-0.3001003,0.8000002-0.2901001
					C16.0438309,12.7970552,16.3236313,12.9370556,16.5736313,13.0969553z" class="colorc6bfe0 svgShape"></path><path fill="#f3367f" d="M22.1299324,26.1619549c-0.3784008,0.3274002-0.9001007,0.4500999-1.3910999,0.5524006
						c-2.4534626,0.5129719-6.2405109,0.970644-8.6037006,0.521801c-0.9820004-0.1842003-2.9563999-0.7059002-3.1711998-1.9028015
						c-0.0973988-0.3905487,0.1106205-0.9256496,0.3069-1.2787991c1.6367998-3.028101,3.2839003-6.0459003,4.9205999-9.0741005
						c0.2762003-0.4910002,0.6036158-1.0332003,1.1458998-1.1560001c0.3886003-0.092,0.7978992,0.0717001,1.1047993,0.3274002
						c0.4562721,0.3533583,0.9708519,1.2351685,1.7084007,2.4244995c0.2203922,0.3751392,1.8805542,2.9511833,3.9284,6.9462013
						C22.4778309,24.2796555,22.9177322,25.4868565,22.1299324,26.1619549z" class="colorf34036 svgShape"></path><path fill="#e11765" d="M11.7739649,27.0754948c-0.2734375-0.0371094-0.4663086-0.2880859-0.4296875-0.5615234
						c0.5673828-4.2714844,1.765625-8.4335938,3.5610352-12.3701162c0.1152344-0.2519531,0.4111328-0.3603516,0.6625977-0.2480469
						c0.2509766,0.1152344,0.3618164,0.4111328,0.2475586,0.6621094c-1.7548828,3.8476553-2.9257813,7.9140615-3.4799805,12.0869131
						C12.299304,26.9194088,12.0474691,27.1111698,11.7739649,27.0754948z" class="colore11a17 svgShape"></path><path fill="#e11765" d="M18.8227921,26.5647526c-0.5546875-4.1728516-1.7250977-8.2392578-3.4799795-12.0869131
						c-0.1142578-0.2509766-0.003418-0.546875,0.2475586-0.6621094c0.2509766-0.1132813,0.5478506-0.0039063,0.6625967,0.2480469
						c1.7954102,3.9365225,2.9936523,8.0986319,3.5610352,12.3701162c0.0366211,0.2734375-0.15625,0.5244141-0.4296875,0.5615234
						C19.1109276,27.0310764,18.8589935,26.8394527,18.8227921,26.5647526z" class="colore11a17 svgShape"></path><path fill="#f3367f" d="M64.7820511,26.1619549c-0.378418,0.3274002-0.900219,0.4500999-1.3912201,0.5524006
						c-2.4533463,0.5129719-6.2405167,0.9706249-8.6035995,0.521801c-0.9821014-0.1842003-2.9564018-0.7059002-3.1711845-1.9028015
						c-0.1745453-0.6919861,0.0193024-0.7169762,5.2273827-10.3528996c0.2761993-0.4910002,0.6037025-1.0332003,1.1459007-1.1560001
						c0.3885994-0.092,0.7980003,0.0717001,1.1048012,0.3274002c0.4647636,0.3598213,1.0183525,1.3116064,1.7084999,2.4244995
						c0,0.100069,1.5716896,2.3488369,3.9283028,6.9462013C65.1299286,24.2796555,65.5697327,25.4868565,64.7820511,26.1619549z" class="colorf34036 svgShape"></path><path fill="#e11765" d="M54.4263077,27.0754948c-0.2734375-0.0371094-0.4663086-0.2880859-0.4296875-0.5615234
						c0.5673828-4.2734375,1.765625-8.4345703,3.5610352-12.3710928c0.1147461-0.2509766,0.4101563-0.359375,0.6625977-0.2470703
						c0.2514648,0.1152344,0.3618164,0.4111328,0.2475586,0.6630859c-1.7548828,3.8447256-2.925293,7.9121084-3.4799805,12.0859365
						C54.9516487,26.9194088,54.6998138,27.1111698,54.4263077,27.0754948z" class="colore11a17 svgShape"></path><path fill="#e11765" d="M61.4746475,26.5647526c-0.5546875-4.1728516-1.7250977-8.2392578-3.4799805-12.0869131
						c-0.1142578-0.2509766-0.003418-0.546875,0.2475586-0.6621094c0.2504883-0.1132813,0.5483398-0.0039063,0.6625977,0.2480469
						c1.7954102,3.9365225,2.9936523,8.0986319,3.5610352,12.3701162c0.0366211,0.2734375-0.15625,0.5244141-0.4296875,0.5615234
						C61.7627831,27.0310764,61.510849,26.8394527,61.4746475,26.5647526z" class="colore11a17 svgShape"></path><g fill="#000000" class="color000000 svgShape"><path fill="#e11765" d="M32.3436317,52.706955c-2.3231831,9.0806122-0.7900009,15.6489105-0.7900009,16.4400024
					c-1.2638206-0.4450073-1.9289551-1.1768951-2.039999-1.259903c-0.3677444,0.5030365-1.1079063,0.7109222-1.6900005,0.6200027
					c-0.0100002-0.0100021-0.0200005-0.030098-0.0200005-0.0401001c-0.8369751-2.3207092,0.6970348-7.3258476,1.5100002-10.0999031
					c0.6802006-2.3199997,1.3801003-4.6500969,2.4801998-6.7999992c0-0.0099983,0.0098-0.0099983,0.0098-0.0200005
					c0.3227348-0.2420502,0.67342-0.4325714,0.9799995-0.5700989C32.8305702,51.2116585,32.7616234,51.2228699,32.3436317,52.706955
					z" class="colore11a17 svgShape"></path></g><g fill="#000000" class="color000000 svgShape"><path fill="#f8d53b" d="M31.9509315,51.4507561c-0.0818844,0.1431999-0.1431999,0.2863998-0.2045002,0.4295998
					c-1.9866943,4.2934036-2.4652233,11.3385315-2.1075001,16.1123962
					c-0.0102005-0.0101929-0.0205002-0.0205002-0.0307007-0.0205002c-0.0306988-0.0305939-0.0614986-0.0612946-0.0920982-0.0817947
					c-0.5319004,0.6957016-1.6367016,0.8183975-2.4142017,0.3886948c-0.7774982-0.4295959-1.2275982-1.2786942-1.3913994-2.1379929
					c-0.46978-2.785553,2.2135811-11.8721886,3.2226009-14.475605c0.2450294-0.560997,0.672123-0.9883575,1.1047001-1.2173996
					c0.4634476-0.2379646,1.1896458-0.0873833,1.5958996,0.5627022c0.0410004,0.0817986,0.2353153,0.4808006,0.1433163,0.5626984
					C31.8280468,51.5325546,31.8895321,51.4814568,31.9509315,51.4507561z" class="colorf8c73b svgShape"></path></g><g fill="#000000" class="color000000 svgShape"><path fill="#e11765" d="M46.6137314,68.1569519c-0.8599014,0.5500031-2.1001015,0.5600052-2.8501015-0.1199951
					c-0.0298004-0.0298996-0.0597992-0.0599976-0.0798988-0.0899048c-0.4398994,0.3899002-0.9499016,0.6900024-1.4897995,0.9199066
					c0.7479401-0.3184738-0.1533546-4.2596436-0.4608841-11.7816048c-0.0891151-2.1813965-0.1615181-4.3870964-0.7144165-6.511097
					c0.5307999,0.1562996,0.9113007,0.4825974,1.3805008,0.7318993c0.0275002-0.0633011,0.4738007-0.9788017,0.5846977-0.8591003
					c1.0434227,1.1264763,1.3773117,2.7443619,1.6699028,4.2198982
					C46.5298271,64.2211533,47.0497551,65.8329391,46.6137314,68.1569519z" class="colore11a17 svgShape"></path></g><g fill="#000000" class="color000000 svgShape"><path fill="#f8d53b" d="M48.1451302,65.3227539c-0.1022987,1.0741043-0.5523987,2.1585007-1.4526978,2.7825012
					c-0.8593025,0.6035995-2.1583862,0.6343002-2.9257011-0.0716019c-0.0236626-0.7119064,0.1645241-1.7384644-0.4196014-7.7747993
					c-0.3170815-3.0998001-0.6135979-6.2198982-1.3808975-9.2479973c0.1635971,0.0920982,0.3068161,0.2045975,0.4500999,0.3376007
					c0.122715-0.8798027,1.2378006-1.4936028,2.0868988-1.1151009c0.8388176,0.3784981,1.1253014,1.3913002,1.3095016,2.2812996
					C48.0927849,63.4865189,48.2659988,63.9114914,48.1451302,65.3227539z" class="colorf8c73b svgShape"></path></g><g fill="#000000" class="color000000 svgShape"><path fill="#e11765" d="M36.3218155,68.4006882c-0.8642578-6.1591759-0.7036133-11.7744102,0.4902344-17.1669884
					c0.0595703-0.2685547,0.328125-0.4394531,0.5961914-0.3798828c0.2700195,0.0595703,0.4399414,0.3271484,0.3803711,0.5966797
					c-1.1679688,5.2734375-1.3237305,10.7724609-0.4765625,16.8115196c0.0385742,0.2734375-0.1523438,0.5263672-0.4257813,0.5644531
					C36.5948067,68.8629074,36.3584557,68.661232,36.3218155,68.4006882z" class="colore11a17 svgShape"></path></g><g opacity=".54" fill="#000000" class="color000000 svgShape"><path fill="#ffffff" d="M34.8083305,55.1020546c-0.1236,0.6380005-0.3101006,1.3899002-0.9209976,1.7380028
					c-0.3199005,0.1822968-0.7480011,0.244297-0.9592018-0.1126022c-0.4035988-0.6823006,0.3223-1.9362984,0.8160019-2.3806
					C34.4423332,53.7184563,34.9571304,54.3344574,34.8083305,55.1020546z" class="colorffffff svgShape"></path></g></g></svg>